# xmcd
#
# Track frame offsets:
#	150
#	19975
#	33936
#	46496
#	64093
#	81132
#	95238
#	108264
#	129642
#	147935
#	165524
#	182284
#	197248
#	216975
#	230384
#	248829
#
# Disc length: 3568 seconds
#
# Revision: 0
# Processed by: cddbd v1.5.1PL0 Copyright (c) Steve Scherf et al.
# Submitted via: dBpowerAMP V4.0
#
DISCID=de0dee10
DTITLE=Clint Black - Pure Black The Greatest Hits
DYEAR=1996
DGENRE=Country
TTITLE0=Like The Rain
TTITLE1=Summer's Comin
TTITLE2=A Good Run Of Bad Luck
TTITLE3=State Of Mind
TTITLE4=A Bad Goodbye(With Wynonna)
TTITLE5=A Better Man
TTITLE6=Killin' Time
TTITLE7=We Tell Ourselves
TTITLE8=Half Way Up
TTITLE9=Burn One Down
TTITLE10=Cadillac Jack Favor
TTITLE11=Put Yourself In My Shoes
TTITLE12=Wherever You Go
TTITLE13=Life Gets Away
TTITLE14=No Time To Kill
TTITLE15=Desperado(Live)
EXTD=BMG 07863 66671 2
EXTT0=
EXTT1=
EXTT2=
EXTT3=
EXTT4=
EXTT5=
EXTT6=
EXTT7=
EXTT8=
EXTT9=
EXTT10=
EXTT11=
EXTT12=
EXTT13=
EXTT14=
EXTT15=
PLAYORDER=
